<svg width="39" height="22" viewBox="0 0 39 22" fill="none" xmlns="http://www.w3.org/2000/svg">
<g id="Group 986987">
<circle id="Ellipse 363" cx="15.0656" cy="14.2395" r="5.93478" fill="#F4F5CD"/>
<circle id="Ellipse 364" cx="32.8694" cy="14.2395" r="5.93478" fill="#F4F5CD"/>
<path id="Vector 101" d="M7.53261 15.8369H5.47826M4.56522 15.8369H1.82609M1.1413 15.8369H0M8.21739 18.576H6.16304M5.02174 18.576H2.28261" stroke="black" stroke-width="0.913043"/>
<path id="Vector 99" d="M22.3693 1H26.9345L28.9432 6.93478M31.9563 15.837L28.9432 6.93478M15.5215 3.73913H18.9454M20.7715 3.73913H18.9454M18.9454 3.73913L20.1845 6.93478M23.2824 14.9239L20.1845 6.93478M20.1845 6.93478H28.9432" stroke="black" stroke-width="0.913043"/>
<path id="Vector 100" d="M23.2825 14.9237L28.989 7.39109V6.93457H20.0869L13.9238 14.9237H23.2825Z" stroke="black" stroke-width="0.913043"/>
<circle id="Ellipse 361" cx="13.696" cy="15.6091" r="5.93478" stroke="black" stroke-width="0.913043"/>
<circle id="Ellipse 362" cx="31.9567" cy="15.6091" r="5.93478" stroke="black" stroke-width="0.913043"/>
</g>
</svg>
