<svg width="39" height="23" viewBox="0 0 39 23" fill="none" xmlns="http://www.w3.org/2000/svg">
<g id="Group 986986">
<circle id="Ellipse 363" cx="15.1415" cy="14.3056" r="5.96477" fill="#37593E" fill-opacity="0.7"/>
<circle id="Ellipse 364" cx="33.0361" cy="14.3056" r="5.96477" fill="#37593E" fill-opacity="0.7"/>
<path id="Vector 101" d="M7.57067 15.9121H5.50594M4.58828 15.9121H1.83531M1.14707 15.9121H0M8.25891 18.6651H6.19418M5.04711 18.6651H2.29414" stroke="black" stroke-width="0.917656"/>
<path id="Vector 99" d="M22.483 1H27.0713L29.0901 6.96477M32.1184 15.9119L29.0901 6.96477M15.6006 3.75297H19.0418M20.8771 3.75297H19.0418M19.0418 3.75297L20.2872 6.96477M23.4007 14.9943L20.2872 6.96477M20.2872 6.96477H29.0901" stroke="black" stroke-width="0.917656"/>
<path id="Vector 100" d="M23.4001 14.9943L29.1355 7.42367V6.96484H20.1883L13.9941 14.9943H23.4001Z" stroke="black" stroke-width="0.917656"/>
<circle id="Ellipse 361" cx="13.7644" cy="15.6824" r="5.96477" stroke="black" stroke-width="0.917656"/>
<circle id="Ellipse 362" cx="32.1179" cy="15.6824" r="5.96477" stroke="black" stroke-width="0.917656"/>
</g>
</svg>
