<svg width="20" height="20" viewBox="0 0 20 20" fill="none" xmlns="http://www.w3.org/2000/svg">
<g id="Frame">
<path id="Vector" d="M13.3023 9.20937H6.34433C6.00544 9.20937 5.73039 9.48442 5.73039 9.82331C5.73039 10.1622 6.00544 10.4372 6.34433 10.4372H13.3023C13.6412 10.4372 13.9162 10.1622 13.9162 9.82331C13.9162 9.48442 13.6412 9.20937 13.3023 9.20937ZM5.11645 2.45605C3.64715 2.45605 2.45605 3.64715 2.45605 5.11645V14.5302C2.45605 15.9994 3.64715 17.1906 5.11645 17.1906H14.5302C15.9994 17.1906 17.1906 15.9994 17.1906 14.5302V5.11645C17.1906 3.64715 15.9994 2.45605 14.5302 2.45605H5.11645ZM3.68393 5.11645C3.68393 4.32529 4.32529 3.68393 5.11645 3.68393H14.5302C15.3213 3.68393 15.9627 4.32529 15.9627 5.11645V14.5302C15.9627 15.3213 15.3213 15.9627 14.5302 15.9627H5.11645C4.32529 15.9627 3.68393 15.3213 3.68393 14.5302V5.11645Z" fill="#37593E"/>
</g>
</svg>
