<svg width="43" height="45" viewBox="0 0 43 45" fill="none" xmlns="http://www.w3.org/2000/svg">
<g id="Frame" filter="url(#filter0_d_163_7920)">
<path id="Vector" d="M9.60962 7.51392C15.2024 1.92114 24.2702 1.92114 29.8629 7.51392C35.4557 13.1067 35.4557 22.1745 29.8629 27.7672L27.9106 29.698C26.4716 31.1102 24.6047 32.9259 22.3088 35.1455C20.8743 36.5327 18.5983 36.5325 17.1639 35.1452L11.4219 29.5598C10.7003 28.8513 10.0962 28.2537 9.60962 27.7672C4.01684 22.1745 4.01684 13.1067 9.60962 7.51392ZM28.1184 9.25843C23.4891 4.6291 15.9834 4.6291 11.3541 9.25843C6.7248 13.8877 6.7248 21.3934 11.3541 26.0227L13.8 28.4363C15.1469 29.7544 16.8401 31.3998 18.879 33.3718C19.3572 33.8342 20.1157 33.8343 20.594 33.372L26.1777 27.9419C26.9489 27.1848 27.596 26.545 28.1184 26.0227C32.7476 21.3934 32.7476 13.8877 28.1184 9.25843ZM19.7363 13.1564C22.4628 13.1564 24.673 15.3667 24.673 18.0932C24.673 20.8197 22.4628 23.0299 19.7363 23.0299C17.0098 23.0299 14.7995 20.8197 14.7995 18.0932C14.7995 15.3667 17.0098 13.1564 19.7363 13.1564ZM19.7363 15.6235C18.3723 15.6235 17.2665 16.7292 17.2665 18.0932C17.2665 19.4572 18.3723 20.5628 19.7363 20.5628C21.1003 20.5628 22.2059 19.4572 22.2059 18.0932C22.2059 16.7292 21.1003 15.6235 19.7363 15.6235Z" fill="#37593E"/>
</g>
<defs>
<filter id="filter0_d_163_7920" x="0" y="0" width="47.4736" height="47.4736" filterUnits="userSpaceOnUse" color-interpolation-filters="sRGB">
<feFlood flood-opacity="0" result="BackgroundImageFix"/>
<feColorMatrix in="SourceAlpha" type="matrix" values="0 0 0 0 0 0 0 0 0 0 0 0 0 0 0 0 0 0 127 0" result="hardAlpha"/>
<feOffset dx="4" dy="4"/>
<feGaussianBlur stdDeviation="2"/>
<feComposite in2="hardAlpha" operator="out"/>
<feColorMatrix type="matrix" values="0 0 0 0 0 0 0 0 0 0 0 0 0 0 0 0 0 0 0.25 0"/>
<feBlend mode="normal" in2="BackgroundImageFix" result="effect1_dropShadow_163_7920"/>
<feBlend mode="normal" in="SourceGraphic" in2="effect1_dropShadow_163_7920" result="shape"/>
</filter>
</defs>
</svg>
