<svg width="24" height="24" viewBox="0 0 24 24" fill="none" xmlns="http://www.w3.org/2000/svg">
<g id="Group 987032">
<path id="Vector 115" d="M23.0501 7.21777L21.6067 5.7744L20.1633 7.21777L21.6067 8.66115L23.0501 7.21777ZM11.7702 7.21777V6.96777C11.765 6.96777 11.7598 6.96794 11.7546 6.96826L11.7702 7.21777ZM19.3115 14.5951V14.8453L19.3213 14.8449L19.3115 14.5951ZM2.04784 22.0544L3.49121 23.4978L4.93459 22.0544L3.49121 20.6111L2.04784 22.0544ZM21.6067 6.96777H11.7702V7.46777H21.6067V6.96777ZM11.7546 6.96826C11.0444 7.01265 10.095 7.35303 9.32055 7.96184C8.5415 8.57427 7.91353 9.48056 7.91353 10.6605H8.41353C8.41353 9.67648 8.93315 8.90238 9.62956 8.35493C10.3306 7.80386 11.1845 7.50487 11.7858 7.46729L11.7546 6.96826ZM7.91353 10.6605C7.91353 13.5278 10.1821 14.8451 11.7702 14.8451V14.3451C10.4074 14.3451 8.41353 13.2034 8.41353 10.6605H7.91353ZM11.7702 14.8451H19.3115V14.3451H11.7702V14.8451ZM19.3213 14.8449C19.9843 14.8189 20.9779 14.9573 21.7963 15.4451C22.5992 15.9237 23.242 16.7409 23.242 18.1198H23.742C23.742 16.5478 22.9913 15.5754 22.0523 15.0156C21.1288 14.4652 20.0322 14.3167 19.3017 14.3453L19.3213 14.8449ZM23.242 18.1198C23.242 19.0073 23.0598 19.6703 22.7787 20.1678C22.498 20.6646 22.1109 21.0103 21.6791 21.2523C20.8062 21.7415 19.7554 21.8044 19.0656 21.8044V22.3044C19.7693 22.3044 20.9317 22.2444 21.9236 21.6885C22.4242 21.4079 22.8825 21.0005 23.214 20.4138C23.5451 19.8278 23.742 19.0767 23.742 18.1198H23.242ZM19.0656 21.8044H3.49121V22.3044H19.0656V21.8044Z" fill="#9AAA9A"/>
<g id="Vector">
<mask id="path-2-inside-1_467_2959" fill="white">
<path d="M1.08639 13.9731C2.5349 12.5304 4.88343 12.5304 6.33194 13.9731C7.78046 15.4158 7.78046 17.7549 6.33194 19.1976L5.8263 19.6956C5.45361 20.0599 4.97008 20.5283 4.37545 21.1009C4.00391 21.4587 3.41443 21.4586 3.04293 21.1008L1.55577 19.66C1.36886 19.4772 1.21241 19.3231 1.08639 19.1976C-0.362129 17.7549 -0.362129 15.4158 1.08639 13.9731ZM5.8801 14.4231C4.68113 13.229 2.73719 13.229 1.53821 14.4231C0.339226 15.6173 0.339226 17.5534 1.53821 18.7476L2.17168 19.3702C2.52052 19.7102 2.95905 20.1346 3.48715 20.6433C3.61098 20.7626 3.80744 20.7626 3.93132 20.6434L5.37749 19.2426C5.57723 19.0474 5.74481 18.8823 5.8801 18.7476C7.07908 17.5534 7.07908 15.6173 5.8801 14.4231ZM3.70917 15.4286C4.41532 15.4286 4.98776 15.9988 4.98776 16.7021C4.98776 17.4054 4.41532 17.9756 3.70917 17.9756C3.00302 17.9756 2.43055 17.4054 2.43055 16.7021C2.43055 15.9988 3.00302 15.4286 3.70917 15.4286ZM3.70917 16.0651C3.3559 16.0651 3.06951 16.3503 3.06951 16.7021C3.06951 17.054 3.3559 17.3392 3.70917 17.3392C4.06244 17.3392 4.34878 17.054 4.34878 16.7021C4.34878 16.3503 4.06244 16.0651 3.70917 16.0651Z"/>
</mask>
<path d="M1.08639 13.9731C2.5349 12.5304 4.88343 12.5304 6.33194 13.9731C7.78046 15.4158 7.78046 17.7549 6.33194 19.1976L5.8263 19.6956C5.45361 20.0599 4.97008 20.5283 4.37545 21.1009C4.00391 21.4587 3.41443 21.4586 3.04293 21.1008L1.55577 19.66C1.36886 19.4772 1.21241 19.3231 1.08639 19.1976C-0.362129 17.7549 -0.362129 15.4158 1.08639 13.9731ZM5.8801 14.4231C4.68113 13.229 2.73719 13.229 1.53821 14.4231C0.339226 15.6173 0.339226 17.5534 1.53821 18.7476L2.17168 19.3702C2.52052 19.7102 2.95905 20.1346 3.48715 20.6433C3.61098 20.7626 3.80744 20.7626 3.93132 20.6434L5.37749 19.2426C5.57723 19.0474 5.74481 18.8823 5.8801 18.7476C7.07908 17.5534 7.07908 15.6173 5.8801 14.4231ZM3.70917 15.4286C4.41532 15.4286 4.98776 15.9988 4.98776 16.7021C4.98776 17.4054 4.41532 17.9756 3.70917 17.9756C3.00302 17.9756 2.43055 17.4054 2.43055 16.7021C2.43055 15.9988 3.00302 15.4286 3.70917 15.4286ZM3.70917 16.0651C3.3559 16.0651 3.06951 16.3503 3.06951 16.7021C3.06951 17.054 3.3559 17.3392 3.70917 17.3392C4.06244 17.3392 4.34878 17.054 4.34878 16.7021C4.34878 16.3503 4.06244 16.0651 3.70917 16.0651Z" fill="#37593E" fill-opacity="0.5"/>
<path d="M6.33194 19.1976L14.1052 27.0893L14.1271 27.0678L14.1489 27.0461L6.33194 19.1976ZM5.8263 19.6956L13.5691 27.6173L13.5843 27.6024L13.5996 27.5874L5.8263 19.6956ZM4.37545 21.1009L-3.30773 13.1214L-3.30864 13.1223L4.37545 21.1009ZM3.04293 21.1008L-4.66472 29.0566L-4.65342 29.0675L-4.64209 29.0785L3.04293 21.1008ZM1.55577 19.66L-6.18899 27.5797L-6.17048 27.5978L-6.15189 27.6158L1.55577 19.66ZM1.08639 19.1976L-6.73052 27.0461L-6.73 27.0466L1.08639 19.1976ZM5.8801 14.4231L-1.93685 22.2716L-1.93684 22.2716L5.8801 14.4231ZM1.53821 14.4231L9.35511 22.2716L9.35514 22.2716L1.53821 14.4231ZM1.53821 18.7476L-6.27867 26.5961L-6.25269 26.622L-6.22655 26.6477L1.53821 18.7476ZM2.17168 19.3702L-5.59309 27.2703L-5.57657 27.2865L-5.55998 27.3027L2.17168 19.3702ZM3.48715 20.6433L-4.19773 28.6212L-4.19693 28.6219L3.48715 20.6433ZM3.93132 20.6434L11.614 28.6233L11.626 28.6117L11.638 28.6001L3.93132 20.6434ZM5.37749 19.2426L13.0842 27.1994L13.1029 27.1813L13.1214 27.1631L5.37749 19.2426ZM8.9033 21.8216C6.02958 24.6838 1.38876 24.6838 -1.48498 21.8216L14.1489 6.12465C8.3781 0.377077 -0.959768 0.377093 -6.73053 6.12464L8.9033 21.8216ZM-1.48498 21.8216C-4.38341 18.9348 -4.38343 14.2359 -1.48497 11.3491L14.1489 27.0461C19.9443 21.2739 19.9443 11.8968 14.1489 6.12465L-1.48498 21.8216ZM-1.44131 11.3058L-1.94695 11.8039L13.5996 27.5874L14.1052 27.0893L-1.44131 11.3058ZM-1.91648 11.774C-2.26189 12.1116 -2.72372 12.5591 -3.30773 13.1214L12.0586 29.0803C12.6639 28.4975 13.1691 28.0082 13.5691 27.6173L-1.91648 11.774ZM-3.30864 13.1223C0.610039 9.34823 6.80995 9.34882 10.728 13.1231L-4.64209 29.0785C0.0189144 33.5685 7.39777 33.5691 12.0595 29.0794L-3.30864 13.1223ZM10.7506 13.145L9.26342 11.7042L-6.15189 27.6158L-4.66472 29.0566L10.7506 13.145ZM9.30052 11.7403C9.12785 11.5714 8.99701 11.4424 8.90277 11.3486L-6.73 27.0466C-6.57219 27.2038 -6.39013 27.383 -6.18899 27.5797L9.30052 11.7403ZM8.90329 11.3491C11.8018 14.2359 11.8017 18.9348 8.9033 21.8216L-6.73053 6.12464C-12.526 11.8968 -12.526 21.2739 -6.73052 27.0461L8.90329 11.3491ZM13.6971 6.57469C8.17582 1.07559 -0.757501 1.07563 -6.27872 6.57466L9.35514 22.2716C6.23188 25.3823 1.18645 25.3824 -1.93685 22.2716L13.6971 6.57469ZM-6.27869 6.57463C-11.8246 12.0983 -11.8247 21.0724 -6.27867 26.5961L9.35509 10.899C12.5031 14.0344 12.5031 19.1363 9.35511 22.2716L-6.27869 6.57463ZM-6.22655 26.6477L-5.59309 27.2703L9.93644 11.4701L9.30297 10.8475L-6.22655 26.6477ZM-5.55998 27.3027C-5.19003 27.6633 -4.73464 28.104 -4.19773 28.6212L11.172 12.6655C10.6527 12.1653 10.2311 11.7571 9.90333 11.4377L-5.55998 27.3027ZM-4.19693 28.6219C0.215405 32.8714 7.19952 32.8734 11.614 28.6233L-3.75139 12.6635C0.415367 8.65189 7.00655 8.6538 11.1712 12.6647L-4.19693 28.6219ZM11.638 28.6001L13.0842 27.1994L-2.32922 11.2859L-3.77539 12.6866L11.638 28.6001ZM13.1214 27.1631C13.3348 26.9546 13.5287 26.7637 13.697 26.5961L-1.93681 10.8991C-2.03911 11.001 -2.1803 11.1401 -2.36646 11.3221L13.1214 27.1631ZM13.697 26.5961C19.243 21.0724 19.2429 12.0983 13.697 6.57467L-1.93684 22.2716C-5.08478 19.1363 -5.08482 14.0344 -1.93681 10.8991L13.697 26.5961ZM3.70917 26.5058C-1.66052 26.5058 -6.08938 22.1583 -6.08938 16.7021H16.0649C16.0649 9.83925 10.4912 4.35151 3.70917 4.35151V26.5058ZM-6.08938 16.7021C-6.08938 11.2456 -1.66028 6.89843 3.70917 6.89843V29.0527C10.4909 29.0527 16.0649 23.5652 16.0649 16.7021H-6.08938ZM3.70917 6.89843C9.07827 6.89843 13.5077 11.2453 13.5077 16.7021H-8.64659C-8.64659 23.5656 -3.07224 29.0527 3.70917 29.0527V6.89843ZM13.5077 16.7021C13.5077 22.1587 9.07852 26.5058 3.70917 26.5058V4.35151C-3.07248 4.35151 -8.64659 9.83891 -8.64659 16.7021H13.5077ZM3.70917 4.98792C-2.71931 4.98792 -8.00763 10.1901 -8.00763 16.7021H14.1467C14.1467 22.5104 9.43111 27.1422 3.70917 27.1422V4.98792ZM-8.00763 16.7021C-8.00763 23.2147 -2.71873 28.4163 3.70917 28.4163V6.26202C9.43054 6.26202 14.1467 10.8932 14.1467 16.7021H-8.00763ZM3.70917 28.4163C10.138 28.4163 15.4259 23.2138 15.4259 16.7021H-6.72836C-6.72836 10.8942 -2.01316 6.26202 3.70917 6.26202V28.4163ZM15.4259 16.7021C15.4259 10.1911 10.1386 4.98792 3.70917 4.98792V27.1422C-2.01374 27.1422 -6.72836 22.5095 -6.72836 16.7021H15.4259Z" fill="#9AAA9A" mask="url(#path-2-inside-1_467_2959)"/>
</g>
<g id="Vector_2">
<mask id="path-4-inside-2_467_2959" fill="white">
<path d="M19.9032 1.37298C20.8404 0.439475 22.3601 0.439475 23.2973 1.37298C24.2346 2.30648 24.2346 3.82001 23.2973 4.75351L22.9702 5.07578C22.729 5.31149 22.4161 5.61456 22.0314 5.98504C21.791 6.21657 21.4095 6.21655 21.1692 5.98498L20.2069 5.05272C20.0859 4.93445 19.9847 4.83471 19.9032 4.75351C18.9659 3.82001 18.9659 2.30648 19.9032 1.37298ZM23.005 1.66416C22.2292 0.891468 20.9713 0.891468 20.1955 1.66416C19.4197 2.43685 19.4197 3.68963 20.1955 4.46232L20.6054 4.86519C20.8311 5.08519 21.1149 5.35983 21.4566 5.68899C21.5367 5.76616 21.6638 5.76619 21.744 5.68902L22.6797 4.78266C22.809 4.6563 22.9174 4.54951 23.005 4.46232C23.7808 3.68963 23.7808 2.43685 23.005 1.66416ZM21.6002 2.31479C22.0572 2.31479 22.4276 2.68371 22.4276 3.1388C22.4276 3.59388 22.0572 3.96279 21.6002 3.96279C21.1433 3.96279 20.7729 3.59388 20.7729 3.1388C20.7729 2.68371 21.1433 2.31479 21.6002 2.31479ZM21.6002 2.72658C21.3717 2.72658 21.1864 2.91113 21.1864 3.1388C21.1864 3.36646 21.3717 3.551 21.6002 3.551C21.8288 3.551 22.0141 3.36646 22.0141 3.1388C22.0141 2.91113 21.8288 2.72658 21.6002 2.72658Z"/>
</mask>
<path d="M19.9032 1.37298C20.8404 0.439475 22.3601 0.439475 23.2973 1.37298C24.2346 2.30648 24.2346 3.82001 23.2973 4.75351L22.9702 5.07578C22.729 5.31149 22.4161 5.61456 22.0314 5.98504C21.791 6.21657 21.4095 6.21655 21.1692 5.98498L20.2069 5.05272C20.0859 4.93445 19.9847 4.83471 19.9032 4.75351C18.9659 3.82001 18.9659 2.30648 19.9032 1.37298ZM23.005 1.66416C22.2292 0.891468 20.9713 0.891468 20.1955 1.66416C19.4197 2.43685 19.4197 3.68963 20.1955 4.46232L20.6054 4.86519C20.8311 5.08519 21.1149 5.35983 21.4566 5.68899C21.5367 5.76616 21.6638 5.76619 21.744 5.68902L22.6797 4.78266C22.809 4.6563 22.9174 4.54951 23.005 4.46232C23.7808 3.68963 23.7808 2.43685 23.005 1.66416ZM21.6002 2.31479C22.0572 2.31479 22.4276 2.68371 22.4276 3.1388C22.4276 3.59388 22.0572 3.96279 21.6002 3.96279C21.1433 3.96279 20.7729 3.59388 20.7729 3.1388C20.7729 2.68371 21.1433 2.31479 21.6002 2.31479ZM21.6002 2.72658C21.3717 2.72658 21.1864 2.91113 21.1864 3.1388C21.1864 3.36646 21.3717 3.551 21.6002 3.551C21.8288 3.551 22.0141 3.36646 22.0141 3.1388C22.0141 2.91113 21.8288 2.72658 21.6002 2.72658Z" fill="#37593E" fill-opacity="0.5"/>
<path d="M23.2973 4.75351L31.0706 12.6452L31.0925 12.6237L31.1143 12.602L23.2973 4.75351ZM22.9702 5.07578L30.7129 12.9974L30.7282 12.9825L30.7434 12.9675L22.9702 5.07578ZM22.0314 5.98504L14.3482 -1.99442L14.3473 -1.99354L22.0314 5.98504ZM21.1692 5.98498L13.4615 13.9408L13.4728 13.9518L13.4841 13.9627L21.1692 5.98498ZM20.2069 5.05272L12.4621 12.9724L12.4806 12.9905L12.4992 13.0085L20.2069 5.05272ZM19.9032 4.75351L12.0862 12.602L12.0868 12.6025L19.9032 4.75351ZM23.005 1.66416L15.188 9.51261L15.188 9.51262L23.005 1.66416ZM20.1955 1.66416L28.0124 9.51266L28.0124 9.51264L20.1955 1.66416ZM20.1955 4.46232L12.3786 12.3109L12.4046 12.3367L12.4307 12.3624L20.1955 4.46232ZM20.6054 4.86519L12.8406 12.7653L12.8572 12.7815L12.8737 12.7977L20.6054 4.86519ZM21.4566 5.68899L13.7717 13.6668L13.7725 13.6676L21.4566 5.68899ZM21.744 5.68902L29.4267 13.6689L29.4387 13.6574L29.4507 13.6458L21.744 5.68902ZM22.6797 4.78266L30.3865 12.7394L30.4051 12.7213L30.4237 12.7032L22.6797 4.78266ZM23.005 4.46232L30.8219 12.3108L23.005 4.46232ZM27.7201 9.22147C24.3351 12.5928 18.8654 12.5928 15.4804 9.22146L31.1143 -6.4755C25.8547 -11.7139 17.3458 -11.7139 12.0862 -6.47551L27.7201 9.22147ZM15.4804 9.22146C12.0707 5.8255 12.0707 0.300998 15.4804 -3.09498L31.1143 12.602C36.3985 7.33902 36.3985 -1.21253 31.1143 -6.4755L15.4804 9.22146ZM15.5241 -3.13823L15.1969 -2.81596L30.7434 12.9675L31.0706 12.6452L15.5241 -3.13823ZM15.2274 -2.84586C15.0135 -2.63681 14.7223 -2.35467 14.3482 -1.99442L29.7145 13.9645C30.1099 13.5838 30.4445 13.2598 30.7129 12.9974L15.2274 -2.84586ZM14.3473 -1.99354C18.3971 -5.89388 24.805 -5.89328 28.8542 -1.9927L13.4841 13.9627C18.014 18.3264 25.1848 18.327 29.7155 13.9636L14.3473 -1.99354ZM28.8768 -1.97084L27.9145 -2.9031L12.4992 13.0085L13.4615 13.9408L28.8768 -1.97084ZM27.9516 -2.867C27.8449 -2.97134 27.7693 -3.04596 27.7195 -3.09551L12.0868 12.6025C12.2001 12.7154 12.3269 12.8402 12.4621 12.9724L27.9516 -2.867ZM27.7201 -3.09499C31.1298 0.300989 31.1297 5.82551 27.7201 9.22147L12.0862 -6.47551C6.802 -1.21254 6.80199 7.33903 12.0862 12.602L27.7201 -3.09499ZM30.8219 -6.18429C25.7238 -11.2619 17.4766 -11.2619 12.3786 -6.18432L28.0124 9.51264C24.466 13.0448 18.7345 13.0449 15.188 9.51261L30.8219 -6.18429ZM12.3786 -6.18434C7.25583 -1.08219 7.25579 7.20867 12.3786 12.3109L28.0124 -3.38621C31.5836 0.170602 31.5836 5.95589 28.0124 9.51266L12.3786 -6.18434ZM12.4307 12.3624L12.8406 12.7653L28.3702 -3.03491L27.9603 -3.43777L12.4307 12.3624ZM12.8737 12.7977C13.1206 13.0383 13.4212 13.3292 13.7717 13.6668L29.1415 -2.28884C28.8086 -2.6095 28.5417 -2.86788 28.3371 -3.06731L12.8737 12.7977ZM13.7725 13.6676C18.1411 17.8749 25.0559 17.8769 29.4267 13.6689L14.0613 -2.2909C18.2718 -6.34455 24.9323 -6.34263 29.1407 -2.28961L13.7725 13.6676ZM29.4507 13.6458L30.3865 12.7394L14.973 -3.17407L14.0373 -2.26772L29.4507 13.6458ZM30.4237 12.7032C30.5665 12.5635 30.7013 12.4309 30.8219 12.3108L15.1881 -3.38617C15.1335 -3.33184 15.0515 -3.25092 14.9358 -3.13783L30.4237 12.7032ZM30.8219 12.3108C35.9447 7.20864 35.9446 -1.08216 30.8219 -6.1843L15.188 9.51262C11.6169 5.95586 11.6169 0.170634 15.1881 -3.38617L30.8219 12.3108ZM21.6002 13.3919C15.9813 13.3919 11.3504 8.84326 11.3504 3.1388H33.5047C33.5047 -3.47584 28.133 -8.76235 21.6002 -8.76235V13.3919ZM11.3504 3.1388C11.3504 -2.56591 15.9816 -7.11435 21.6002 -7.11435V15.0399C28.1328 15.0399 33.5047 9.75367 33.5047 3.1388H11.3504ZM21.6002 -7.11435C27.2186 -7.11435 31.85 -2.56625 31.85 3.1388H9.69577C9.69577 9.75401 15.0681 15.0399 21.6002 15.0399V-7.11435ZM31.85 3.1388C31.85 8.84359 27.2188 13.3919 21.6002 13.3919V-8.76235C15.0678 -8.76235 9.69577 -3.47618 9.69577 3.1388H31.85ZM21.6002 -8.35056C15.2964 -8.35056 10.1092 -3.24904 10.1092 3.1388H32.2635C32.2635 9.0713 27.4469 13.8037 21.6002 13.8037V-8.35056ZM10.1092 3.1388C10.1092 9.52721 15.297 14.6281 21.6002 14.6281V-7.52614C27.4463 -7.52614 32.2635 -2.79429 32.2635 3.1388H10.1092ZM21.6002 14.6281C27.9044 14.6281 33.0913 9.52625 33.0913 3.1388H10.937C10.937 -2.79333 15.7532 -7.52614 21.6002 -7.52614V14.6281ZM33.0913 3.1388C33.0913 -3.24808 27.905 -8.35056 21.6002 -8.35056V13.8037C15.7527 13.8037 10.937 9.07035 10.937 3.1388H33.0913Z" fill="#9AAA9A" mask="url(#path-4-inside-2_467_2959)"/>
</g>
</g>
</svg>
