<svg width="115" height="97" viewBox="0 0 115 97" fill="none" xmlns="http://www.w3.org/2000/svg">
<g id="Group 987074">
<path id="Vector 125" d="M57.5178 15.7372C47.2603 24.855 55.1434 34.7326 60.3671 38.5317H104.532C108.331 38.0562 115.645 34.2561 114.505 22.8589C113.365 11.4617 100.733 11.4627 94.5598 12.8879C94.085 8.61344 90.8557 0.0644531 81.738 0.0644531C72.6202 0.0644531 68.4412 8.61344 67.4915 12.8879C65.5919 12.413 60.9378 12.3181 57.5178 15.7372Z" fill="#CCCCCC" fill-opacity="0.5"/>
<path id="Vector 126" d="M54.6701 18.5868C44.4126 27.7046 52.2957 37.5822 57.5194 41.3813H101.685C105.484 40.9058 112.797 37.1057 111.657 25.7085C110.518 14.3113 97.8857 14.3123 91.7122 15.7375C91.2373 11.463 88.0081 2.91406 78.8903 2.91406C69.7725 2.91406 65.5936 11.463 64.6438 15.7375C62.7443 15.2627 58.0902 15.1677 54.6701 18.5868Z" fill="#D9D9D9" stroke="#37593E" stroke-opacity="0.9" stroke-width="2.07472"/>
<path id="Vector 127" d="M11.9813 27.9487C-1.0683 39.5484 8.96056 52.1146 15.6062 56.9478H71.7934C76.6266 56.343 85.9305 51.5085 84.4805 37.0089C83.0306 22.5093 66.9602 22.5107 59.1063 24.3238C58.5021 18.8858 54.3939 8.00977 42.7943 8.00977C31.1946 8.00977 25.8781 18.8858 24.6698 24.3238C22.2532 23.7197 16.3323 23.5988 11.9813 27.9487Z" fill="#CCCCCC" fill-opacity="0.8"/>
<path id="Vector 128" d="M8.3563 31.5737C-4.6933 43.1734 5.33556 55.7396 11.9812 60.5728H68.1684C73.0016 59.968 82.3055 55.1335 80.8555 40.6339C79.4056 26.1343 63.3352 26.1357 55.4813 27.9488C54.8771 22.5108 50.7689 11.6348 39.1693 11.6348C27.5696 11.6348 22.2531 22.5108 21.0448 27.9488C18.6282 27.3447 12.7073 27.2238 8.3563 31.5737Z" fill="#D9D9D9" stroke="#37593E" stroke-width="2.63947"/>
<circle id="Ellipse 377" cx="25.0423" cy="69.1887" r="5.56179" fill="#D9D9D9"/>
<circle id="Ellipse 384" cx="37.7551" cy="88.261" r="5.56179" fill="#D9D9D9"/>
<circle id="Ellipse 386" cx="77.4817" cy="88.261" r="5.56179" fill="#D9D9D9"/>
<circle id="Ellipse 378" cx="55.2356" cy="75.5462" r="5.56179" fill="#D9D9D9"/>
<circle id="Ellipse 380" cx="80.6594" cy="69.1887" r="5.56179" fill="#D9D9D9"/>
<circle id="Ellipse 382" cx="99.7278" cy="56.4759" r="5.56179" fill="#D9D9D9"/>
<circle id="Ellipse 376" cx="22.6571" cy="71.5731" r="5.03633" stroke="#37593E" stroke-width="2.64"/>
<circle id="Ellipse 385" cx="35.37" cy="90.6434" r="5.03633" stroke="#37593E" stroke-width="2.64"/>
<circle id="Ellipse 387" cx="75.0985" cy="90.6434" r="5.03633" stroke="#37593E" stroke-width="2.64"/>
<circle id="Ellipse 379" cx="52.8505" cy="77.9305" r="5.03633" stroke="#37593E" stroke-width="2.64"/>
<circle id="Ellipse 381" cx="78.2763" cy="71.5731" r="5.03633" stroke="#37593E" stroke-width="2.64"/>
<circle id="Ellipse 383" cx="97.3446" cy="58.8622" r="5.03633" stroke="#37593E" stroke-width="2.64"/>
</g>
</svg>
