<svg width="56" height="49" viewBox="0 0 56 49" fill="none" xmlns="http://www.w3.org/2000/svg">
<g id="Group 987006" filter="url(#filter0_d_274_2830)">
<g id="Group 987004" filter="url(#filter1_d_274_2830)">
<g id="Group 987003">
<path id="Vector 106" d="M4.42837 17.9647C1.84145 19.6893 3.35049 23.7134 4.42837 25.5099C9.09886 30.5398 19.0866 41.0308 21.6735 42.7554C24.9071 44.9111 31.3744 43.8332 33.5302 42.7554C35.686 41.6775 47.5427 26.5871 48.6206 25.5099C51.2075 22.9235 50.417 20.1203 49.6985 19.0419C43.9497 14.3711 32.0212 4.81401 30.2966 3.95225C28.5719 2.22763 25.2664 3.23366 23.8293 3.95225C18.4402 7.90449 7.01529 16.2401 4.42837 17.9647Z" fill="#FEC868"/>
</g>
</g>
</g>
<defs>
<filter id="filter0_d_274_2830" x="0" y="0" width="55.4014" height="49" filterUnits="userSpaceOnUse" color-interpolation-filters="sRGB">
<feFlood flood-opacity="0" result="BackgroundImageFix"/>
<feColorMatrix in="SourceAlpha" type="matrix" values="0 0 0 0 0 0 0 0 0 0 0 0 0 0 0 0 0 0 127 0" result="hardAlpha"/>
<feOffset dx="1" dy="1"/>
<feGaussianBlur stdDeviation="2"/>
<feComposite in2="hardAlpha" operator="out"/>
<feColorMatrix type="matrix" values="0 0 0 0 0.992157 0 0 0 0 0.658824 0 0 0 0 0.407843 0 0 0 0.5 0"/>
<feBlend mode="normal" in2="BackgroundImageFix" result="effect1_dropShadow_274_2830"/>
<feBlend mode="normal" in="SourceGraphic" in2="effect1_dropShadow_274_2830" result="shape"/>
</filter>
<filter id="filter1_d_274_2830" x="0" y="0" width="55.4014" height="49" filterUnits="userSpaceOnUse" color-interpolation-filters="sRGB">
<feFlood flood-opacity="0" result="BackgroundImageFix"/>
<feColorMatrix in="SourceAlpha" type="matrix" values="0 0 0 0 0 0 0 0 0 0 0 0 0 0 0 0 0 0 127 0" result="hardAlpha"/>
<feOffset dx="1" dy="1"/>
<feGaussianBlur stdDeviation="2"/>
<feComposite in2="hardAlpha" operator="out"/>
<feColorMatrix type="matrix" values="0 0 0 0 0.992157 0 0 0 0 0.72549 0 0 0 0 0.517647 0 0 0 1 0"/>
<feBlend mode="normal" in2="BackgroundImageFix" result="effect1_dropShadow_274_2830"/>
<feBlend mode="normal" in="SourceGraphic" in2="effect1_dropShadow_274_2830" result="shape"/>
</filter>
</defs>
</svg>
