<svg width="61" height="45" viewBox="0 0 61 45" fill="none" xmlns="http://www.w3.org/2000/svg">
<g id="Vector">
<path d="M8.5065 14.9647C5.91958 16.6893 7.42861 20.7134 8.5065 22.5099C13.177 27.5398 23.1647 38.0308 25.7516 39.7554C28.9853 41.9111 35.4526 40.8332 37.6083 39.7554C39.7641 38.6775 51.6208 23.5871 52.6987 22.5099C55.2856 19.9235 54.4952 17.1203 53.7766 16.0419C48.0279 11.3711 36.0993 1.81401 34.3747 0.952248C32.6501 -0.772365 29.3446 0.233659 27.9074 0.952248C22.5183 4.90449 11.0934 13.2401 8.5065 14.9647Z" fill="#FEC868"/>
<path fill-rule="evenodd" clip-rule="evenodd" d="M29.8697 0.963732C31.1792 0.828924 32.7734 0.980302 33.9609 2.07227C34.2467 2.23363 34.6206 2.48392 35.0341 2.77434C35.55 3.13673 36.1902 3.60673 36.9197 4.15494C38.3798 5.25212 40.2193 6.67916 42.1798 8.22143C43.7673 9.47025 45.437 10.7969 47.0531 12.0889C47.4573 11.4898 47.9728 10.8421 48.58 10.2582C49.6032 9.27442 51.0266 8.34048 52.7225 8.34048C54.8261 8.34048 56.731 9.72184 58.055 11.6343C59.3986 13.5751 60.2676 16.2165 60.2676 19.1193V27.8396L60.2503 27.9352C59.8611 30.0753 58.6283 33.0328 56.0731 34.7534C53.4719 36.5051 49.802 36.7834 44.9777 34.2476C43.4052 36.129 41.8156 37.9927 40.4704 39.4804C39.748 40.2793 39.0862 40.9806 38.5297 41.5218C38.0125 42.0247 37.4787 42.4986 37.0372 42.7194C35.7846 43.3456 33.4715 43.9041 31.0943 44.0439C28.7375 44.1825 26.0168 43.9297 24.1005 42.6521C23.3637 42.1609 22.1887 41.1157 20.8269 39.8218C19.4408 38.5049 17.7941 36.8648 16.0881 35.1272C15.1638 34.1858 14.2205 33.2142 13.2898 32.2477C12.8751 32.8777 12.3332 33.5705 11.6876 34.1913C10.6645 35.1751 9.24107 36.109 7.54518 36.109C5.44158 36.109 3.53667 34.7277 2.21269 32.8152C0.869061 30.8745 -2.53769e-07 28.233 0 25.3302L7.62348e-07 16.6099L0.0173872 16.5143C0.406501 14.3742 1.63936 11.4167 4.19453 9.69608C6.77409 7.95903 10.4045 7.67088 15.1695 10.1391C19.0945 7.29481 23.4446 4.11601 26.2167 2.08296L26.2904 2.02892L26.3721 1.98806C27.1799 1.58421 28.4915 1.1056 29.8697 0.963732ZM8.05121 17.8615C10.6517 16.1278 22.0082 7.84234 27.4148 3.87767L50.8834 23.7476C50.5639 24.0669 49.5683 25.2787 48.3022 26.8242L47.7905 27.4491C46.5844 28.9221 45.1432 30.6822 43.6765 32.4422C41.9946 34.4604 40.288 36.4679 38.8714 38.0345C38.1623 38.8187 37.5356 39.4815 37.0269 39.9762C36.7723 40.2237 36.5564 40.4202 36.381 40.5652C36.2937 40.6374 36.2221 40.6922 36.1654 40.732C36.1374 40.7517 36.1153 40.7662 36.0986 40.7764C36.0928 40.78 36.088 40.7828 36.0841 40.7851L36.0796 40.7876C36.0751 40.7902 36.0731 40.7912 36.0731 40.7912C35.1699 41.2428 33.1715 41.7622 30.9677 41.8919C28.7435 42.0227 26.6137 41.7366 25.2963 40.8584C24.7397 40.4873 23.6962 39.5744 22.3118 38.259C20.9515 36.9666 19.3244 35.3463 17.6263 33.6169C14.2693 30.1977 10.6559 26.3732 8.32222 23.8615C7.846 23.042 7.30554 21.7799 7.14784 20.5709C6.9837 19.3125 7.25081 18.3951 8.05121 17.8615ZM27.4148 3.87767L50.8834 23.7476C52.9142 21.717 52.3948 19.6209 51.9036 18.7646C49.0298 16.4308 44.6944 12.9424 40.847 9.91576C38.8912 8.37718 37.0659 6.96144 35.6246 5.87833C34.9035 5.3364 34.284 4.88187 33.795 4.53842C33.2847 4.17996 32.9726 3.98275 32.8397 3.91636L32.6831 3.83811L32.5593 3.71433C32.0335 3.18848 31.1784 2.99617 30.0904 3.10817C29.0685 3.21336 28.0516 3.57086 27.4148 3.87767ZM13.1858 11.574C9.46792 9.91512 7.00404 10.4032 5.39864 11.4842C3.53081 12.742 2.5031 15.0092 2.15577 16.8072L2.15577 25.3302C2.15577 27.8168 2.90353 30.0258 3.98514 31.5882C5.08639 33.1789 6.41513 33.9533 7.54518 33.9533C8.43621 33.9533 9.34824 33.45 10.1934 32.6374C10.862 31.9945 11.4015 31.2396 11.7504 30.6422C9.81448 28.6146 8.01635 26.7003 6.66343 25.2432L6.5869 25.1608L6.52903 25.0644C5.94002 24.0827 5.22359 22.4858 5.01018 20.8497C4.79706 19.2158 5.06889 17.2588 6.8554 16.0678C7.87567 15.3876 10.2984 13.6587 13.1858 11.574ZM46.3898 32.5488C50.497 34.5915 53.166 34.1121 54.869 32.9653C56.7368 31.7075 57.7645 29.4403 58.1119 27.6423V19.1193C58.1119 16.6327 57.3641 14.4237 56.2825 12.8613C55.1813 11.2707 53.8525 10.4962 52.7225 10.4962C51.8314 10.4962 50.9194 10.9995 50.0742 11.8122C49.5359 12.3298 49.0812 12.92 48.7424 13.4423C50.4859 14.8419 52.1025 16.1486 53.4031 17.2053L53.5298 17.3082L53.6204 17.4441C54.5511 18.8408 55.4433 22.237 52.4076 25.2721C52.188 25.4916 51.2972 26.57 49.9699 28.1903L49.4604 28.8125C48.5448 29.9306 47.4898 31.2192 46.3898 32.5488Z" fill="#FFA300"/>
<path d="M20.078 12.9199C19.4816 12.9199 18.998 13.4035 18.998 13.9999C18.998 14.5964 19.4816 15.0799 20.078 15.0799H24.6433C25.2397 15.0799 25.7233 14.5964 25.7233 13.9999C25.7233 13.4035 25.2397 12.9199 24.6433 12.9199H20.078Z" fill="#FFA300"/>
<path d="M29.2082 12.9199C28.6117 12.9199 28.1282 13.4035 28.1282 13.9999C28.1282 14.5964 28.6117 15.0799 29.2082 15.0799H41.0778C41.6742 15.0799 42.1577 14.5964 42.1577 13.9999C42.1577 13.4035 41.6742 12.9199 41.0778 12.9199H29.2082Z" fill="#FFA300"/>
<path d="M18.998 21.3044C18.998 20.7079 19.4816 20.2244 20.078 20.2244H31.9476C32.5441 20.2244 33.0276 20.7079 33.0276 21.3044C33.0276 21.9008 32.5441 22.3844 31.9476 22.3844H20.078C19.4816 22.3844 18.998 21.9008 18.998 21.3044Z" fill="#FFA300"/>
<path d="M36.5126 20.2244C35.9162 20.2244 35.4326 20.7079 35.4326 21.3044C35.4326 21.9008 35.9162 22.3844 36.5126 22.3844H41.0778C41.6743 22.3844 42.1578 21.9008 42.1578 21.3044C42.1579 20.7079 41.6743 20.2244 41.0779 20.2244H36.5126Z" fill="#FFA300"/>
<path d="M18.998 29.5217C18.998 28.9252 19.4816 28.4417 20.078 28.4417H24.6433C25.2397 28.4417 25.7233 28.9252 25.7233 29.5217C25.7233 30.1181 25.2397 30.6017 24.6433 30.6017H20.078C19.4816 30.6017 18.998 30.1181 18.998 29.5217Z" fill="#FFA300"/>
<path d="M29.2082 28.4417C28.6117 28.4417 28.1282 28.9252 28.1282 29.5217C28.1282 30.1181 28.6117 30.6017 29.2082 30.6017H41.0778C41.6742 30.6017 42.1577 30.1181 42.1577 29.5217C42.1577 28.9252 41.6742 28.4417 41.0778 28.4417H29.2082Z" fill="#FFA300"/>
</g>
</svg>
