<svg width="62" height="45" viewBox="0 0 62 45" fill="none" xmlns="http://www.w3.org/2000/svg">
<g id="Group 987073">
<path id="Exclude" d="M9.42837 14.9647C6.84145 16.6893 8.35049 20.7134 9.42837 22.5099C14.0989 27.5398 24.0866 38.0308 26.6735 39.7554C29.9071 41.9111 36.3744 40.8332 38.5302 39.7554C40.686 38.6775 52.5427 23.5871 53.6206 22.5099C56.2075 19.9235 55.417 17.1203 54.6985 16.0419C48.9497 11.3711 37.0212 1.81401 35.2966 0.952248C33.5719 -0.772365 30.2664 0.233659 28.8293 0.952248C23.4402 4.90449 12.0153 13.2401 9.42837 14.9647Z" fill="#FDA868" fill-opacity="0.8"/>
<path id="Vector" d="M18.4002 14.9792C17.8049 14.9792 17.3223 15.4618 17.3223 16.0571C17.3223 16.6524 17.8049 17.135 18.4002 17.135V14.9792ZM42.1136 17.135C42.7089 17.135 43.1915 16.6524 43.1915 16.0571C43.1915 15.4618 42.7089 14.9792 42.1136 14.9792V17.135ZM18.4002 21.4465C17.8049 21.4465 17.3223 21.9291 17.3223 22.5244C17.3223 23.1197 17.8049 23.6023 18.4002 23.6023V21.4465ZM42.1136 23.6023C42.7089 23.6023 43.1915 23.1197 43.1915 22.5244C43.1915 21.9291 42.7089 21.4465 42.1136 21.4465V23.6023ZM18.4002 27.9138C17.8049 27.9138 17.3223 28.3964 17.3223 28.9917C17.3223 29.587 17.8049 30.0696 18.4002 30.0696V27.9138ZM42.1136 30.0696C42.7089 30.0696 43.1915 29.587 43.1915 28.9917C43.1915 28.3964 42.7089 27.9138 42.1136 27.9138V30.0696ZM60.1119 27.7425L61.1724 27.9353L61.1898 27.8397V27.7425H60.1119ZM8.4673 35.0312V33.9534V35.0312ZM2 25.3303H0.922117H2ZM2 16.7072L0.939504 16.5144L0.922117 16.61V16.7072H2ZM8.37542 24.5099L7.45115 25.0645L7.50901 25.1609L7.58555 25.2433L8.37542 24.5099ZM8.37542 16.9647L7.77752 16.0679L7.77752 16.0679L8.37542 16.9647ZM27.7763 2.95225L27.2943 1.98816L27.2125 2.02902L27.1389 2.08306L27.7763 2.95225ZM34.2436 2.95225L33.4814 3.71443L33.6052 3.83821L33.7618 3.91646L34.2436 2.95225ZM53.6455 18.0419L54.5425 17.4442L54.4519 17.3083L54.3252 17.2054L53.6455 18.0419ZM52.5676 24.5099L53.3296 25.2723L53.3297 25.2722L52.5676 24.5099ZM37.4773 41.7554L37.9593 42.7195L37.4773 41.7554ZM25.6205 41.7554L25.0226 42.6522L25.6205 41.7554ZM18.4002 17.135H42.1136V14.9792H18.4002V17.135ZM18.4002 23.6023H42.1136V21.4465H18.4002V23.6023ZM18.4002 30.0696H42.1136V27.9138H18.4002V30.0696ZM49.2192 14.212C49.5331 13.5843 50.165 12.6116 50.9963 11.8123C51.8415 10.9996 52.7535 10.4963 53.6446 10.4963V8.34057C51.9487 8.34057 50.5253 9.27452 49.5022 10.2583C48.4652 11.2554 47.6958 12.4385 47.2911 13.2479L49.2192 14.212ZM53.6446 10.4963C54.7746 10.4963 56.1034 11.2707 57.2046 12.8614C58.2862 14.4238 59.034 16.6328 59.034 19.1194H61.1898C61.1898 16.2166 60.3207 13.5752 58.9771 11.6344C57.6531 9.72193 55.7482 8.34057 53.6446 8.34057V10.4963ZM59.034 19.1194V27.7425H61.1898V19.1194H59.034ZM59.0514 27.5497C58.7219 29.3618 57.6912 31.6859 55.7911 32.9654C53.9937 34.1757 51.1203 34.6427 46.6155 32.1856L45.5832 34.0782C50.5639 36.7949 54.3374 36.5433 56.9952 34.7535C59.5504 33.0329 60.7833 30.0754 61.1724 27.9353L59.0514 27.5497ZM12.8926 30.2377C12.5788 30.8654 11.9469 31.8381 11.1155 32.6375C10.2704 33.4501 9.35833 33.9534 8.4673 33.9534V36.1091C10.1632 36.1091 11.5866 35.1752 12.6097 34.1914C13.6467 33.1943 14.4161 32.0112 14.8208 31.2018L12.8926 30.2377ZM8.4673 33.9534C7.33725 33.9534 6.00851 33.179 4.90726 31.5883C3.82565 30.0259 3.07788 27.8169 3.07788 25.3303H0.922117C0.922117 28.2331 1.79118 30.8746 3.1348 32.8153C4.45879 34.7278 6.3637 36.1091 8.4673 36.1091V33.9534ZM3.07788 25.3303L3.07788 16.7072H0.922117L0.922117 25.3303H3.07788ZM3.0605 16.9001C3.38997 15.0879 4.42067 12.7638 6.32075 11.4843C8.11815 10.274 10.9916 9.80697 15.4963 12.2641L16.5286 10.3715C11.548 7.65482 7.7745 7.90641 5.11664 9.69617C2.56147 11.4168 1.32862 14.3743 0.939504 16.5144L3.0605 16.9001ZM9.2997 23.9553C8.81083 23.1406 8.2338 21.8271 8.06995 20.571C7.90581 19.3126 8.17292 18.3952 8.97333 17.8616L7.77752 16.0679C5.991 17.2589 5.71917 19.2159 5.93229 20.8498C6.1457 22.4859 6.86213 24.0828 7.45115 25.0645L9.2997 23.9553ZM8.97333 17.8616C11.5862 16.1197 23.0387 7.7634 28.4138 3.82144L27.1389 2.08306C21.7358 6.04558 10.3385 14.3606 7.77752 16.0679L8.97333 17.8616ZM28.2584 3.91634C28.8878 3.6016 29.9475 3.2179 31.0125 3.10826C32.1005 2.99627 32.9556 3.18858 33.4814 3.71443L35.0058 2.19007C33.807 0.991307 32.147 0.82432 30.7918 0.96383C29.4136 1.1057 28.102 1.58431 27.2943 1.98816L28.2584 3.91634ZM33.7618 3.91646C33.8947 3.98285 34.2068 4.18006 34.7171 4.53852C35.2061 4.88197 35.8256 5.33649 36.5468 5.87842C37.9881 6.96154 39.8133 8.37728 41.7691 9.91586C45.6795 12.9921 50.0942 16.5453 52.9658 18.8785L54.3252 17.2054C51.4481 14.8677 47.0241 11.307 43.102 8.22153C41.1415 6.67926 39.3019 5.25222 37.8419 4.15504C37.1124 3.60683 36.4721 3.13683 35.9562 2.77444C35.4616 2.42705 35.0237 2.13709 34.7254 1.98804L33.7618 3.91646ZM52.7485 18.6397C53.255 19.3997 53.9437 21.6099 51.8055 23.7477L53.3297 25.2722C56.3654 22.2371 55.4732 18.8409 54.5425 17.4442L52.7485 18.6397ZM51.8057 23.7475C51.4864 24.0666 50.4907 25.2785 49.2244 26.8243C47.9261 28.4091 46.2792 30.4257 44.5986 32.4423C42.9168 34.4605 41.2101 36.468 39.7935 38.0346C39.0844 38.8188 38.4577 39.4816 37.949 39.9763C37.6944 40.2238 37.4785 40.4203 37.3031 40.5653C37.2158 40.6375 37.1442 40.6923 37.0876 40.7321C37.0596 40.7518 37.0374 40.7663 37.0207 40.7765C37.0125 40.7815 37.0062 40.7852 37.0017 40.7877C36.9972 40.7903 36.9951 40.7913 36.9952 40.7913L37.9593 42.7195C38.4008 42.4987 38.9346 42.0248 39.4518 41.5219C40.0083 40.9807 40.6701 40.2794 41.3925 39.4805C42.8391 37.8807 44.5682 35.8462 46.2547 33.8224C47.9425 31.7971 49.5966 29.7718 50.892 28.1904C52.2194 26.5701 53.1099 25.4918 53.3296 25.2723L51.8057 23.7475ZM36.9952 40.7913C36.092 41.2429 34.0936 41.7623 31.8898 41.892C29.6656 42.0228 27.5358 41.7367 26.2184 40.8585L25.0226 42.6522C26.9389 43.9298 29.6596 44.1826 32.0164 44.044C34.3936 43.9042 36.7067 43.3457 37.9593 42.7195L36.9952 40.7913ZM26.2184 40.8585C25.6618 40.4874 24.6183 39.5745 23.2339 38.2591C21.8737 36.9667 20.2465 35.3464 18.5484 33.617C15.1533 30.159 11.4959 26.2864 9.1653 23.7765L7.58555 25.2433C9.92547 27.7633 13.5972 31.6512 17.0102 35.1273C18.7162 36.8649 20.363 38.505 21.749 39.8219C23.1108 41.1158 24.2858 42.161 25.0226 42.6522L26.2184 40.8585Z" fill="#FF6E00"/>
</g>
</svg>
